<?xml version="1.0" standalone="no"?>
<!DOCTYPE svg PUBLIC "-//W3C//DTD SVG 20010904//EN"
 "http://www.w3.org/TR/2001/REC-SVG-20010904/DTD/svg10.dtd">
<svg version="1.0" xmlns="http://www.w3.org/2000/svg"
 width="860.000000pt" height="780.000000pt" viewBox="0 0 860.000000 780.000000"
 preserveAspectRatio="xMidYMid meet">

<g transform="translate(0.000000,780.000000) scale(0.100000,-0.100000)"
fill="#000000" stroke="none">
<path d="M5850 7105 c10 -12 6 -15 -30 -21 -23 -4 -57 -17 -76 -30 -19 -13
-39 -24 -44 -24 -5 0 -20 -18 -32 -40 -13 -22 -28 -40 -35 -40 -15 0 -24 -15
-34 -54 -5 -22 -7 -25 -8 -9 -1 25 -28 35 -141 54 -92 16 -227 17 -669 5
l-343 -9 158 -32 c385 -79 686 -179 863 -286 50 -31 73 -39 112 -39 40 0 49 3
50 18 0 12 3 10 11 -8 10 -23 12 -20 19 34 5 33 14 63 21 67 10 7 105 -35 118
-52 3 -3 24 -16 47 -27 39 -20 44 -21 84 -7 23 8 46 15 51 15 16 0 -11 -38
-33 -45 -11 -4 -19 -14 -17 -23 2 -13 15 -15 63 -13 74 3 64 -11 -20 -29 -90
-20 -141 -15 -209 20 -33 17 -63 27 -68 22 -12 -12 21 -104 44 -122 12 -10 17
-22 12 -33 -3 -9 -2 -17 3 -17 20 0 73 32 88 53 14 20 15 19 15 -25 0 -25 3
-59 6 -76 6 -31 7 -31 34 -17 25 13 29 13 34 0 7 -19 -23 -35 -63 -35 -34 0
-39 -11 -16 -30 8 -7 15 -19 15 -26 0 -10 -6 -11 -26 -3 -15 5 -30 7 -33 3 -3
-4 0 -9 7 -11 7 -3 25 -16 40 -29 l27 -23 -26 -1 c-15 0 -32 7 -39 15 -25 30
-30 14 -9 -27 34 -69 46 -78 103 -78 l51 -1 103 108 103 108 -6 90 c-6 92 5
141 22 100 4 -11 8 -41 7 -67 0 -37 4 -49 17 -53 9 -3 44 -23 78 -45 34 -22
63 -39 65 -37 2 1 15 -12 29 -29 14 -17 44 -43 66 -59 23 -15 54 -51 71 -79
25 -43 30 -47 30 -26 0 80 -10 98 -96 171 -46 39 -84 76 -84 81 0 7 19 9 52 5
l53 -7 -105 70 c-103 68 -104 69 -122 50 -26 -27 -35 -25 -43 10 -4 16 -11 32
-16 35 -5 4 -9 11 -9 17 0 6 8 4 18 -5 25 -23 32 -21 32 8 0 20 5 25 25 25 27
0 45 25 45 64 0 17 -6 26 -15 26 -20 0 -65 -44 -65 -63 0 -8 -7 -20 -15 -27
-23 -19 -18 -2 18 59 30 53 32 61 31 152 -1 86 -5 106 -35 179 l-34 83 -70 33
c-38 18 -89 36 -112 40 -23 3 -44 13 -47 20 -4 9 -22 14 -57 14 -44 0 -50 -2
-39 -15z m-263 -292 c-3 -10 -5 -2 -5 17 0 19 2 27 5 18 2 -10 2 -26 0 -35z
m10 -60 c-3 -10 -5 -4 -5 12 0 17 2 24 5 18 2 -7 2 -21 0 -30z m521 -341 c5
-15 -42 -37 -62 -29 -24 9 -19 24 12 35 31 12 44 10 50 -6z"/>
<path d="M3945 6831 c-384 -140 -786 -354 -1079 -575 -123 -93 -326 -264 -326
-275 0 -8 84 -71 95 -71 4 0 44 33 89 73 346 310 714 556 1153 773 173 85 212
108 202 119 -2 2 -62 -18 -134 -44z"/>
<path d="M4188 6765 c-21 -20 -61 -69 -90 -110 -28 -41 -53 -73 -56 -71 -2 3
1 28 7 56 25 114 5 134 -38 37 -33 -72 -54 -178 -42 -210 4 -12 11 -35 15 -52
6 -29 6 -29 -10 -10 -15 19 -15 18 -13 -20 2 -22 10 -48 18 -59 15 -17 14 -18
-9 -15 -17 3 -26 11 -28 27 -3 19 -6 21 -18 11 -18 -15 -18 -62 1 -100 20 -37
15 -45 -31 -54 -23 -4 -54 -23 -85 -52 l-49 -46 -46 39 c-71 60 -67 59 -127
45 -51 -11 -156 -75 -144 -88 3 -2 33 10 66 27 l62 31 69 -38 c39 -21 70 -40
70 -43 0 -3 -30 -5 -67 -6 -80 -1 -167 -25 -200 -56 -29 -27 -29 -35 0 -41 12
-2 3 -5 -21 -6 -35 -1 -50 -8 -87 -42 -41 -38 -46 -40 -80 -30 -40 11 -81 2
-122 -27 -16 -11 -55 -23 -87 -27 l-60 -7 24 -18 c16 -12 34 -17 50 -13 22 4
204 -38 216 -50 3 -2 -42 -12 -98 -21 -104 -17 -398 -34 -387 -22 3 3 37 17
75 31 38 14 53 22 34 19 -32 -6 -174 -59 -225 -85 -36 -18 -45 -42 -32 -84 13
-45 3 -54 -63 -56 l-45 -2 40 -6 c38 -6 35 -8 -60 -29 -74 -17 -145 -44 -277
-107 -98 -46 -178 -80 -178 -75 0 5 -48 -15 -107 -46 -155 -79 -343 -126 -512
-130 l-124 -3 -31 -33 c-17 -18 -53 -52 -79 -74 l-47 -41 0 -72 c0 -52 5 -83
20 -111 21 -42 57 -57 45 -20 -7 23 -5 24 29 9 35 -16 58 3 49 39 -6 26 -6 26
20 9 17 -11 49 -17 95 -18 67 -1 72 0 148 49 44 27 107 62 141 76 81 34 241
71 389 91 65 8 189 32 274 51 140 33 166 42 270 100 64 35 119 64 123 64 5 0
13 -13 18 -30 13 -36 28 -37 150 -14 57 11 117 32 194 70 105 51 116 54 211
60 99 7 100 7 117 -19 9 -14 19 -38 23 -53 4 -16 24 -46 45 -67 33 -31 37 -40
28 -56 -9 -13 -8 -29 4 -67 9 -27 18 -78 22 -114 l6 -65 -28 48 c-15 26 -33
45 -39 43 -6 -2 -23 25 -38 61 -21 50 -24 68 -15 79 9 11 6 14 -17 14 -16 0
-40 3 -54 7 -25 6 -25 6 -6 -15 11 -12 27 -22 36 -22 15 0 18 -17 24 -132 7
-126 6 -133 -14 -148 -19 -14 -21 -27 -23 -163 l-2 -148 -17 38 c-10 21 -28
66 -40 101 -13 34 -26 62 -29 62 -4 0 -12 -15 -19 -32 -7 -18 -25 -58 -40 -89
-15 -31 -33 -72 -39 -92 -9 -25 -27 -47 -58 -68 l-45 -31 7 -57 c4 -31 8 -60
8 -65 1 -5 -9 -12 -23 -16 -25 -6 -24 -7 15 -32 22 -13 49 -30 60 -36 51 -29
51 -28 16 -69 -83 -97 -197 -307 -225 -414 -7 -31 -30 -149 -50 -265 -23 -130
-51 -256 -76 -334 -60 -186 -72 -251 -71 -369 2 -95 4 -106 28 -136 15 -18 48
-43 74 -56 43 -20 58 -21 143 -15 53 3 102 9 110 12 17 6 86 98 86 113 0 5 33
54 73 108 91 123 248 345 307 437 l44 68 42 -6 c23 -3 48 -7 56 -8 10 -2 13
15 14 71 l1 75 52 25 c28 14 51 30 51 36 0 7 15 28 33 48 l32 36 167 3 c92 1
169 0 172 -3 3 -3 -20 -18 -53 -33 l-58 -28 46 -42 c25 -24 76 -55 113 -71 77
-32 99 -52 127 -118 l21 -48 -25 -50 -25 -49 24 -12 c20 -9 30 -8 50 5 24 16
25 16 30 -11 7 -40 4 -61 -9 -56 -6 3 -28 -10 -49 -28 l-38 -33 -8 -115 c-11
-146 -44 -361 -60 -390 -7 -13 -10 -43 -8 -71 5 -46 4 -49 -19 -49 -22 0 -24
-4 -21 -32 3 -41 18 -56 77 -83 25 -12 53 -30 61 -40 14 -17 12 -18 -33 -11
-41 6 -47 5 -47 -11 0 -13 -9 -7 -34 22 -19 22 -36 38 -39 35 -8 -8 12 -122
30 -165 9 -22 19 -87 23 -145 l7 -106 64 -82 c62 -79 67 -83 130 -102 119 -36
235 -19 209 30 -22 40 -41 50 -98 50 -65 0 -73 4 -107 50 -34 47 -33 83 5 110
17 12 27 26 24 32 -4 6 -1 14 6 18 10 6 9 23 -4 78 -20 90 -21 85 14 80 46 -7
39 26 -17 77 -32 30 -44 48 -40 59 4 9 2 25 -5 35 -8 13 -8 27 0 48 8 24 7 34
-5 46 -9 8 -15 26 -15 39 0 48 46 155 97 223 78 104 84 116 98 185 l13 64 57
11 c32 6 65 19 74 27 14 15 11 16 -44 11 l-59 -5 -61 50 c-33 28 -67 64 -74
81 -7 16 -17 27 -23 24 -5 -3 -6 -1 -2 6 4 6 0 18 -8 27 -24 23 -22 126 2 147
27 25 31 21 20 -18 -8 -24 -8 -53 0 -100 9 -55 18 -73 56 -119 35 -40 57 -57
90 -66 67 -19 101 -6 147 53 22 29 57 70 78 92 22 22 42 54 45 70 l7 31 -68
16 c-37 9 -71 14 -75 12 -5 -3 -8 -18 -8 -33 0 -19 -8 -34 -24 -44 -23 -15
-25 -14 -74 31 l-50 47 -27 140 c-15 77 -35 154 -46 171 -25 41 -24 55 9 128
l27 61 12 -90 c6 -49 12 -128 13 -175 1 -94 15 -143 54 -195 29 -38 64 -45
124 -24 24 8 37 7 61 -6 35 -18 71 -12 97 16 20 22 37 152 55 426 7 100 16
180 21 177 11 -7 10 -123 -2 -204 -5 -35 -7 -66 -6 -68 2 -2 20 18 40 44 34
44 36 52 30 93 -8 60 -38 128 -66 151 -23 19 -43 27 -35 13 6 -10 -10 -328
-23 -453 -10 -103 -26 -130 -76 -130 -32 0 -44 32 -44 118 l-1 67 -16 -35 -17
-35 -7 100 c-4 55 -14 135 -24 178 -9 43 -14 81 -11 84 3 4 17 1 31 -5 30 -14
30 -15 5 39 -11 24 -20 55 -20 68 0 21 -3 23 -37 16 -21 -4 -60 -15 -88 -24
-43 -15 -51 -21 -55 -48 l-5 -32 -27 24 c-24 20 -28 32 -28 74 0 44 3 52 31
72 29 20 31 26 26 64 -5 31 0 54 17 92 38 80 42 112 17 129 -21 15 -21 15 -1
42 17 23 18 33 9 72 -11 50 -5 99 23 179 10 31 28 97 38 146 11 50 27 118 36
153 16 59 19 63 55 72 31 9 39 16 44 43 4 17 13 52 21 77 10 32 12 62 6 105
l-8 60 -28 -83 c-15 -46 -30 -81 -33 -79 -2 3 5 42 17 87 14 56 19 99 16 134
-18 169 -17 199 5 259 12 32 25 55 30 50 4 -4 50 -102 103 -218 53 -115 104
-217 114 -225 10 -8 64 -35 120 -59 l101 -44 72 59 c39 32 84 69 99 81 l27 22
36 -77 c38 -84 80 -220 101 -333 11 -60 11 -77 -1 -112 -24 -70 9 -201 68
-270 36 -42 42 -45 66 -36 20 7 30 6 43 -6 24 -21 70 -19 96 6 18 17 26 19 43
10 26 -15 27 -36 1 -54 -20 -14 -19 -15 9 -68 16 -30 50 -119 76 -199 48 -144
48 -144 43 -252 -3 -60 -8 -112 -12 -115 -3 -4 -13 2 -20 13 -8 10 -18 16 -22
12 -4 -4 -2 -13 4 -20 14 -17 35 -203 28 -243 -5 -23 -2 -36 12 -48 31 -29
285 -207 289 -203 2 1 35 90 73 197 38 107 105 293 150 414 44 121 80 225 80
232 0 6 45 140 101 297 l100 286 -180 201 c-100 110 -181 207 -181 215 0 9 5
24 11 35 6 13 7 25 1 32 -8 10 -59 126 -129 290 -15 36 -18 37 -67 38 -28 0
-71 4 -95 7 -41 7 -42 8 -24 24 26 24 142 42 162 25 9 -7 38 -32 65 -55 53
-45 66 -43 66 10 0 24 -12 33 -131 93 -147 75 -128 76 -219 -12 l-55 -52 -85
26 c-47 14 -88 31 -92 37 -4 6 -10 8 -13 4 -10 -10 -74 20 -161 77 -75 48 -83
58 -112 119 -34 73 -31 69 -117 143 -52 44 -150 103 -172 103 -4 0 12 -20 35
-43 70 -71 84 -180 30 -233 -16 -16 -90 -25 -103 -12 -4 3 1 20 10 38 26 50 6
156 -46 242 -21 37 -48 74 -60 81 -11 8 -33 35 -48 59 -25 39 -35 46 -70 51
-22 3 -52 14 -67 26 -17 14 -41 21 -67 21 -34 0 -48 7 -77 35 l-37 36 -124 4
c-91 3 -110 2 -71 -4 127 -21 120 -17 152 -81 17 -33 27 -60 24 -60 -4 0 -44
27 -91 60 -77 56 -87 60 -138 60 l-54 0 4 69 c2 38 7 77 13 87 13 26 6 242 -9
260 -6 7 -15 11 -20 9 -4 -3 -18 12 -31 34 -21 36 -32 43 -110 71 -70 24 -103
30 -170 30 -81 0 -84 -1 -120 -35z m171 -10 c-15 -8 -36 -11 -50 -7 -21 6 -19
7 16 13 61 9 62 9 34 -6z m-182 -152 c-3 -10 -5 -4 -5 12 0 17 2 24 5 18 2 -7
2 -21 0 -30z m100 -5 c-3 -8 -6 -5 -6 6 -1 11 2 17 5 13 3 -3 4 -12 1 -19z
m-50 -85 c-3 -10 -5 -4 -5 12 0 17 2 24 5 18 2 -7 2 -21 0 -30z m73 -83 c0 -5
-2 -10 -4 -10 -3 0 -8 5 -11 10 -3 6 -1 10 4 10 6 0 11 -4 11 -10z m-25 -86
c14 -15 25 -35 25 -45 0 -14 7 -19 28 -19 34 0 47 -9 56 -37 5 -16 2 -23 -14
-28 -28 -9 -90 3 -90 17 0 6 3 8 7 5 3 -4 12 -2 20 4 27 23 -4 37 -66 32 -57
-5 -60 -5 -74 23 -8 16 -18 39 -21 52 -7 21 -5 22 49 22 48 0 60 -4 80 -26z
m-275 -180 c0 -2 -9 -4 -20 -4 -11 0 -20 6 -20 14 0 8 -3 23 -7 33 -4 12 2 9
20 -10 15 -15 27 -30 27 -33z m56 7 c4 -17 11 -28 18 -25 14 5 79 -80 69 -90
-15 -15 -50 -4 -65 22 l-17 27 -1 -66 c0 -60 2 -68 31 -95 47 -45 112 -124
101 -124 -5 0 -41 36 -81 80 -69 76 -72 82 -84 152 -9 50 -9 85 -3 111 11 44
24 48 32 8z m328 -127 c9 -24 7 -54 -4 -54 -14 0 -31 37 -24 54 8 20 20 20 28
0z m-186 -122 c4 -61 -7 -66 -31 -16 -13 27 -15 40 -6 55 17 33 34 16 37 -39z
m1491 -210 c14 -27 18 -51 15 -78 -5 -34 0 -46 36 -94 58 -75 76 -116 84 -180
10 -81 55 -345 72 -420 20 -90 23 -95 35 -83 8 8 6 32 -6 85 -24 104 -63 348
-55 348 3 0 32 -27 65 -60 33 -34 96 -82 140 -107 44 -26 82 -48 84 -49 7 -6
-81 -299 -94 -312 -10 -11 -4 -21 30 -55 34 -33 49 -59 69 -121 14 -44 24 -81
22 -83 -2 -2 -19 26 -37 62 -37 70 -49 80 -49 39 0 -21 -3 -24 -14 -15 -7 6
-16 25 -20 42 -4 19 -29 54 -68 93 -55 55 -70 64 -113 71 -28 5 -53 8 -56 7
-4 -1 -16 47 -29 106 -23 116 -62 208 -132 318 -69 107 -74 120 -102 251 -24
114 -25 124 -10 165 8 24 13 52 10 62 -8 31 12 46 60 46 40 0 45 -3 63 -38z
m-934 -123 c9 -46 13 -54 33 -54 13 0 29 11 40 28 l19 27 21 -78 c29 -105 29
-104 -14 -96 -35 6 -36 6 -28 -17 12 -33 9 -106 -5 -123 -6 -7 -9 -21 -5 -30
5 -12 -6 -21 -41 -36 -26 -11 -49 -20 -51 -20 -3 0 -2 26 2 58 5 46 3 60 -10
71 -9 7 -16 21 -16 30 0 9 -4 22 -9 30 -10 16 -45 0 -72 -32 -15 -20 -17 -18
-37 43 -30 87 -29 89 17 83 39 -5 40 -5 43 28 2 25 -3 41 -20 60 l-23 27 63
30 c35 17 67 29 73 28 5 -1 14 -27 20 -57z m621 23 c6 -4 19 -23 29 -42 9 -19
25 -42 35 -50 9 -8 27 -46 38 -83 24 -80 21 -83 -61 -73 -42 6 -64 16 -103 48
-66 55 -184 166 -184 174 0 4 15 4 34 1 33 -5 107 10 122 26 9 9 76 9 90 -1z
m-2623 -86 c15 -19 27 -45 27 -58 0 -18 -5 -14 -19 18 -10 23 -26 44 -35 47
-9 4 -16 11 -16 17 0 19 15 10 43 -24z m-175 -78 c-2 -16 -20 -32 -58 -53 -80
-43 -388 -167 -587 -237 -146 -51 -175 -59 -189 -47 -13 11 -4 17 73 44 77 27
161 70 511 257 67 37 130 52 225 57 24 1 28 -3 25 -21z m149 -48 c27 0 29 -2
25 -30 -3 -23 -9 -29 -21 -26 -26 8 -105 25 -116 26 -6 0 -59 -29 -118 -64
-138 -82 -349 -167 -524 -210 -183 -45 -238 -67 -298 -119 -62 -55 -112 -81
-196 -102 -35 -9 -72 -19 -83 -22 -12 -3 -16 -1 -12 6 4 6 41 21 82 33 80 23
93 43 28 43 -21 1 -61 11 -88 23 -71 32 -88 29 -130 -23 -21 -25 -43 -45 -49
-45 -7 0 -5 5 4 10 9 5 35 34 58 63 l42 55 103 -33 104 -32 53 27 c30 15 88
39 129 53 240 82 613 239 750 316 25 14 79 37 120 52 65 23 77 25 91 13 8 -8
29 -14 46 -14z m-113 -181 c-44 -24 -82 -38 -104 -38 l-35 0 30 16 c17 9 50
33 74 54 44 37 46 37 74 22 l30 -15 -69 -39z m-1181 -141 c29 -15 14 -19 -37
-9 -65 12 -89 36 -26 26 25 -4 53 -12 63 -17z m42 -39 c28 -6 61 -16 74 -23
l24 -13 -22 -12 c-17 -10 -32 -8 -79 8 -31 11 -76 25 -99 31 -24 6 -43 15 -43
21 0 11 51 6 145 -12z m4499 -378 c41 -42 47 -53 42 -77 -3 -18 0 -39 10 -54
l15 -25 -6 25 c-10 41 -10 45 0 50 5 3 11 -9 12 -25 1 -17 9 -51 18 -75 14
-38 14 -46 1 -58 -13 -13 -19 -6 -47 56 -32 73 -46 84 -70 56 -10 -13 -9 -24
6 -67 9 -29 24 -62 31 -74 8 -13 10 -24 4 -28 -11 -7 -73 121 -72 150 1 10 -7
33 -18 50 -22 37 -43 112 -36 131 12 31 60 15 110 -35z m-154 -192 c0 -14 7
-43 15 -62 8 -20 11 -38 6 -42 -12 -7 -50 41 -55 69 -2 12 -9 43 -14 69 l-10
48 29 -27 c18 -17 29 -38 29 -55z m-2496 -59 c43 -55 72 -100 66 -100 -29 0
-142 34 -145 44 -9 29 -14 166 -6 162 5 -3 43 -51 85 -106z m2823 -2 c-3 -8
-6 -5 -6 6 -1 11 2 17 5 13 3 -3 4 -12 1 -19z m-2931 -63 c29 -76 29 -76 132
-152 57 -41 101 -77 98 -80 -2 -3 -39 5 -81 18 -73 21 -79 25 -135 93 -59 70
-60 72 -60 134 0 34 4 62 9 62 4 0 21 -34 37 -75z m-74 -806 c-43 -40 -39 -63
11 -67 31 -3 39 0 46 20 11 29 6 38 -21 38 -20 0 -21 1 -3 20 21 24 58 26 78
5 12 -11 13 -22 5 -52 -5 -21 -9 -59 -8 -85 1 -52 -20 -102 -49 -118 -23 -12
-71 -14 -71 -2 1 11 24 36 45 48 11 6 21 23 23 38 3 26 2 26 -57 26 -57 0 -61
-2 -67 -26 -6 -25 1 -37 31 -47 19 -7 -17 -37 -45 -37 -45 0 -56 69 -20 128
11 18 20 44 20 58 0 52 33 82 90 83 25 1 25 1 -8 -30z m1461 -166 c6 -85 5
-93 -11 -93 -10 0 -24 -6 -31 -12 -10 -11 -12 -4 -8 37 8 81 32 175 42 163 1
-2 5 -45 8 -95z m-92 -1210 c13 -16 12 -17 -3 -4 -17 13 -22 21 -14 21 2 0 10
-8 17 -17z m16 -155 c-3 -8 -6 -5 -6 6 -1 11 2 17 5 13 3 -3 4 -12 1 -19z"/>
<path d="M4678 5602 c-43 -19 -46 -27 -20 -41 30 -16 59 -3 64 30 5 33 6 33
-44 11z"/>
<path d="M4822 5528 c-5 -7 -12 -23 -14 -36 -2 -19 4 -27 31 -38 33 -14 33
-14 27 8 -4 13 -9 35 -12 51 -7 30 -16 34 -32 15z"/>
<path d="M4661 5494 c0 -11 3 -14 6 -6 3 7 2 16 -1 19 -3 4 -6 -2 -5 -13z"/>
<path d="M4735 5453 c2 -18 0 -33 -5 -33 -6 0 -10 -4 -10 -10 0 -5 7 -10 15
-10 8 0 15 -4 15 -9 0 -17 20 -64 26 -59 2 3 0 18 -6 33 -7 20 -8 31 0 39 14
14 13 26 -4 26 -8 0 -19 12 -25 28 l-11 27 5 -32z"/>
<path d="M4613 5453 c-36 -5 -39 -13 -19 -58 12 -26 15 -27 21 -12 4 10 20 24
36 32 27 15 32 47 5 43 -6 0 -26 -3 -43 -5z"/>
<path d="M4738 5254 c-4 -36 2 -40 33 -24 26 14 24 33 -5 46 -23 11 -24 9 -28
-22z"/>
<path d="M5700 6375 c0 0 11 -26 24 -59 24 -57 24 -58 31 -28 3 17 13 36 21
43 8 6 14 19 14 28 0 12 -10 16 -45 16 -25 0 -45 0 -45 0z"/>
<path d="M6572 6224 l67 -80 -24 -93 c-22 -86 -22 -94 -8 -131 19 -47 33 -43
33 10 0 41 14 61 24 34 9 -24 6 -153 -7 -316 -10 -117 -10 -150 0 -164 10 -14
13 -14 17 -3 21 62 28 112 33 232 5 126 12 157 27 125 7 -16 1 18 -38 207
l-31 150 -80 55 -80 54 67 -80z"/>
<path d="M3285 5949 l-30 -19 25 0 c14 0 31 9 38 20 15 25 6 24 -33 -1z"/>
<path d="M6253 5839 c-40 -31 -40 -31 -47 -118 -4 -47 -9 -111 -12 -141 l-5
-55 35 65 c24 44 35 79 36 107 0 24 9 70 21 104 12 33 19 62 17 65 -3 2 -23
-10 -45 -27z"/>
<path d="M6767 5412 l-47 -48 56 -124 c31 -69 83 -192 115 -275 32 -82 59
-145 59 -138 0 14 -129 626 -133 630 -2 1 -24 -19 -50 -45z"/>
<path d="M4946 5285 c10 -48 94 -359 98 -362 1 -1 48 -12 104 -24 l101 -22
108 28 c59 16 103 30 98 31 -6 2 -72 10 -149 19 -76 8 -142 17 -146 20 -13 8
-121 175 -135 208 -7 18 -30 55 -50 82 -32 45 -35 47 -29 20z"/>
<path d="M2779 4960 c-514 -113 -539 -119 -605 -158 -56 -33 -182 -142 -163
-142 2 0 69 11 147 25 159 28 393 35 464 13 36 -10 40 -9 66 15 23 22 58 32
263 72 l237 47 6 52 c3 28 6 66 6 83 0 31 5 35 78 72 42 22 68 40 57 39 -11 0
-261 -53 -556 -118z"/>
<path d="M5107 4791 l93 -89 122 -5 c97 -4 146 0 231 16 59 11 105 22 103 24
-6 6 -348 83 -616 138 -19 4 -2 -17 67 -84z"/>
<path d="M1615 4620 c3 -5 8 -10 11 -10 2 0 4 5 4 10 0 6 -5 10 -11 10 -5 0
-7 -4 -4 -10z"/>
<path d="M5280 4502 c121 -62 233 -103 246 -90 2 3 -38 37 -90 76 l-94 71 -98
6 -99 6 135 -69z"/>
<path d="M5142 4428 c24 -29 75 -90 113 -135 l69 -82 79 -17 c43 -10 92 -27
108 -38 15 -12 43 -32 61 -46 l33 -25 -33 45 c-139 193 -133 188 -302 272 -85
42 -159 77 -164 78 -5 0 11 -24 36 -52z"/>
<path d="M4916 4361 c-4 -6 12 -20 39 -33 46 -22 47 -23 61 -3 8 10 11 22 7
26 -14 14 -100 22 -107 10z"/>
<path d="M5165 4240 c-4 -13 1 -32 12 -51 l19 -30 13 25 c11 20 10 28 -4 50
-21 31 -31 33 -40 6z"/>
<path d="M1132 4218 c3 -7 40 -123 83 -258 43 -135 83 -250 89 -257 13 -13
355 -103 360 -94 1 3 -4 124 -13 269 -13 214 -19 265 -31 272 -9 5 -40 11 -70
14 -30 2 -134 18 -230 35 -201 36 -194 35 -188 19z"/>
<path d="M5287 4061 c15 -59 15 -59 -25 -192 -62 -205 -61 -203 -46 -230 10
-18 14 -21 18 -9 26 71 35 104 29 114 -4 8 -3 8 6 0 22 -20 99 -139 137 -209
59 -114 146 -255 155 -255 12 0 12 4 -11 52 -21 46 -100 436 -100 494 0 29 -3
34 -24 34 -17 0 -26 7 -30 24 -3 13 -16 46 -28 73 -12 26 -25 55 -29 65 -5 11
-2 18 11 21 11 3 18 1 17 -5 -2 -10 252 -110 267 -105 22 7 -316 187 -352 187
-6 0 -4 -24 5 -59z"/>
<path d="M4953 3903 c9 -2 25 -2 35 0 9 3 1 5 -18 5 -19 0 -27 -2 -17 -5z"/>
<path d="M5963 2978 c-12 -6 -25 -23 -28 -39 -9 -39 -56 -72 -90 -63 -23 6
-25 4 -20 -17 3 -13 9 -44 13 -69 7 -43 9 -45 47 -52 22 -4 66 -7 98 -7 l57
-1 26 58 c44 98 43 106 -12 157 -51 48 -56 50 -91 33z"/>
<path d="M3725 2946 c-71 -14 -105 -31 -105 -51 0 -11 4 -13 18 -6 40 22 161
30 254 16 l92 -14 72 -72 c60 -60 75 -70 87 -60 29 24 1 72 -70 121 -52 36
-81 48 -151 62 -99 20 -115 21 -197 4z"/>
<path d="M3458 2728 c-43 -24 -123 -83 -179 -131 -97 -85 -117 -112 -67 -87
12 6 3 -7 -22 -29 -25 -22 -48 -41 -51 -41 -19 -1 -219 -283 -219 -309 0 -5
21 -14 48 -21 74 -19 123 -41 179 -83 48 -36 53 -44 59 -88 4 -27 10 -49 15
-49 19 0 182 104 251 159 89 72 278 263 382 389 l78 92 -53 71 c-47 63 -61 75
-142 116 -66 33 -107 46 -147 50 -50 4 -62 0 -132 -39z"/>
<path d="M5716 2753 c-24 -24 21 -91 82 -122 25 -13 28 -40 8 -79 -21 -41 -46
-176 -46 -247 0 -39 11 -101 30 -168 28 -96 29 -109 16 -129 -9 -14 -15 -50
-15 -92 -1 -92 5 -115 30 -109 17 5 19 11 13 37 -13 56 -10 71 14 74 22 3 22
4 6 32 l-17 28 71 101 c40 55 76 103 82 106 17 10 81 224 74 249 -3 13 -14 33
-25 45 -18 19 -22 19 -58 6 -22 -7 -58 -24 -81 -37 -35 -20 -42 -21 -50 -8 -7
11 -4 20 11 32 18 15 19 21 9 57 -16 61 -2 81 58 81 61 0 112 15 170 49 30 17
48 35 50 49 l3 22 -34 -20 c-45 -27 -187 -40 -187 -18 0 10 -14 18 -39 22 -22
3 -47 9 -57 13 -11 4 -15 2 -11 -4 10 -16 -44 -3 -74 18 -14 10 -29 16 -33 12z
m201 -59 c-3 -3 -12 -4 -19 -1 -8 3 -5 6 6 6 11 1 17 -2 13 -5z"/>
<path d="M2810 1999 c-36 -47 -90 -97 -161 -150 -83 -62 -118 -96 -152 -147
-33 -50 -58 -74 -96 -95 -56 -31 -60 -29 -34 10 17 25 17 26 -3 15 -43 -23
-94 -99 -105 -157 -5 -30 -7 -60 -4 -65 6 -10 119 -47 233 -76 49 -13 72 -23
73 -34 0 -13 101 -99 141 -121 21 -11 229 -67 275 -73 40 -6 42 -5 78 45 l38
50 -32 33 c-17 17 -31 39 -31 48 0 10 -7 21 -17 26 -20 12 -15 13 103 37 79
15 85 15 230 -9 111 -19 167 -24 222 -19 39 3 72 8 72 10 0 2 -16 18 -35 35
-20 17 -47 50 -61 74 l-26 44 -352 0 -353 0 2 72 3 72 96 64 c85 56 95 65 86
83 -8 13 -8 19 0 19 7 0 54 25 105 56 l93 55 -16 29 -17 29 -32 -25 c-18 -13
-60 -43 -93 -65 -46 -30 -60 -45 -55 -57 3 -9 -11 3 -32 27 -20 24 -64 63 -96
88 l-58 45 36 39 c29 32 44 60 33 59 -2 0 -28 -32 -58 -71z m-215 -403 c23
-25 49 -60 59 -78 10 -18 37 -47 60 -64 38 -28 45 -41 65 -110 20 -70 28 -85
74 -127 l52 -49 -40 6 c-29 5 -47 16 -65 39 -34 43 -126 133 -172 167 l-37 27
18 29 c17 28 17 31 1 64 -21 42 -67 84 -116 108 -35 16 -35 17 -13 23 54 15
72 10 114 -35z m-179 -46 c15 -6 58 -33 94 -60 63 -47 66 -51 62 -85 -2 -19
-7 -35 -11 -35 -3 0 -61 15 -128 32 l-123 33 0 42 c0 34 5 45 28 62 31 24 41
25 78 11z m589 -290 l39 -40 -63 0 c-55 0 -67 4 -102 32 -46 37 -39 48 36 48
46 0 55 -4 90 -40z"/>
<path d="M3659 1788 c-65 -22 -79 -43 -79 -119 0 -52 37 -192 48 -185 6 4 11
-16 15 -68 2 -24 72 -70 141 -92 28 -9 63 -23 77 -30 23 -11 29 -11 38 0 7 8
22 16 34 19 l22 6 -22 -19 c-26 -20 -29 -30 -11 -30 16 0 216 97 251 122 33
24 72 75 82 108 l7 25 -21 -26 c-20 -26 -110 -89 -126 -89 -4 0 10 19 32 43
57 61 87 130 91 207 l3 65 -24 -66 c-33 -91 -34 -92 -62 -73 -13 9 -28 13 -33
10 -5 -3 -17 -35 -27 -72 -17 -63 -20 -67 -64 -88 -36 -16 -65 -21 -139 -21
l-92 0 40 -17 c52 -22 51 -29 -1 -15 -35 8 -52 23 -105 91 -63 79 -104 163
-104 211 0 27 33 49 104 70 l39 12 -29 20 c-29 20 -29 20 -85 1z m361 -422 c0
-2 -8 -10 -17 -17 -16 -13 -17 -12 -4 4 13 16 21 21 21 13z"/>
<path d="M3505 1698 c-3 -18 -9 -58 -11 -88 -4 -49 -3 -53 9 -32 7 12 16 19
21 15 6 -6 -3 127 -9 135 -2 2 -6 -12 -10 -30z"/>
<path d="M5610 1636 c0 -9 4 -16 8 -16 36 0 74 -100 52 -140 -8 -15 -6 -20 10
-25 27 -9 25 -25 -2 -25 -13 -1 13 -15 56 -33 79 -32 108 -57 67 -57 -33 0
-112 44 -150 84 -30 31 -35 44 -40 103 l-6 68 -13 -40 c-8 -23 -12 -71 -10
-115 l3 -75 80 -38 c69 -34 85 -47 118 -96 35 -50 48 -60 125 -96 77 -35 97
-40 176 -44 l88 -3 39 38 c35 34 39 43 39 86 0 26 -2 48 -4 48 -3 0 -16 -4
-30 -10 -21 -8 -27 -6 -36 10 -9 16 -15 18 -37 9 -41 -15 -71 -4 -68 25 2 18
-3 27 -17 32 -12 3 -55 39 -96 79 -62 60 -86 76 -131 90 -82 23 -104 37 -119
70 -8 17 -30 42 -50 55 -49 33 -52 34 -52 16z m283 -209 c16 -21 18 -30 9 -39
-10 -10 -16 -7 -27 9 -9 12 -22 29 -30 37 -21 20 -19 28 6 24 12 -2 31 -15 42
-31z m-90 16 c-13 -2 -35 -2 -50 0 -16 2 -5 4 22 4 28 0 40 -2 28 -4z m143
-129 c-25 -18 -30 -12 -22 22 7 26 8 26 24 10 16 -16 16 -18 -2 -32z"/>
<path d="M4479 1593 l-157 -3 -10 -42 c-6 -23 -10 -43 -8 -45 1 -1 94 1 207 6
218 9 219 9 219 -40 0 -31 7 -35 82 -44 73 -9 83 -16 68 -45 -6 -12 -10 -23
-8 -25 4 -4 310 -72 348 -77 23 -3 25 1 36 60 9 47 9 65 0 67 -6 2 -38 12 -71
22 l-60 18 -3 45 c-2 24 -8 50 -13 56 -5 6 -39 14 -75 18 -37 4 -98 13 -136
21 -40 9 -111 14 -166 13 -53 -1 -167 -4 -253 -5z"/>
<path d="M6024 1411 c60 -60 99 -91 119 -95 17 -3 32 -4 34 -2 7 7 -210 186
-226 186 -9 0 23 -39 73 -89z"/>
<path d="M3600 1445 c13 -14 26 -25 28 -25 3 0 -5 11 -18 25 -13 14 -26 25
-28 25 -3 0 5 -11 18 -25z"/>
<path d="M3825 1203 c-95 -3 -244 -22 -277 -35 -63 -24 -19 -64 88 -80 43 -6
178 -12 299 -12 189 -1 227 2 273 18 53 18 73 39 55 57 -12 12 -216 46 -303
51 -36 1 -96 2 -135 1z"/>
</g>
</svg>
